<svg xmlns="http://www.w3.org/2000/svg" width="512" height="512" viewBox="0 0 512 512">
<path fill-rule="evenodd"  fill="rgb(194, 23, 91)"
 d="M179.999,0.0 L332.0,0.0 C431.411,0.0 511.999,80.588 511.999,179.999 L511.999,332.0 C511.999,431.411 431.411,511.999 332.0,511.999 L179.999,511.999 C80.588,511.999 0.0,431.411 0.0,332.0 L0.0,179.999 C0.0,80.588 80.588,0.0 179.999,0.0 Z"/>
<path fill-rule="evenodd"  fill="rgb(255, 255, 255)"
 d="M376.999,351.999 L180.0,351.999 C168.954,351.999 160.0,343.45 160.0,331.999 L160.0,135.0 C160.0,115.670 175.670,100.0 194.999,100.0 L376.999,100.0 C396.329,100.0 411.999,115.670 411.999,135.0 L411.999,317.0 C411.999,336.329 396.329,351.999 376.999,351.999 ZM381.999,160.0 L189.999,160.0 L189.999,301.999 C189.999,313.45 198.954,322.0 210.0,322.0 L362.0,322.0 C373.45,322.0 381.999,313.45 381.999,301.999 L381.999,160.0 ZM301.999,381.999 L331.999,381.999 C340.283,381.999 346.999,388.716 346.999,396.999 C346.999,405.283 340.283,411.999 331.999,411.999 L130.0,411.999 C113.431,411.999 100.0,398.569 100.0,381.999 L100.0,180.999 C100.0,172.715 106.715,166.0 115.0,166.0 C123.284,166.0 130.0,172.715 130.0,180.999 L130.0,220.0 L130.0,346.999 L130.0,362.0 C130.0,373.45 138.954,381.999 149.999,381.999 L165.0,381.999 L301.999,381.999 Z"/>
</svg>